<?xml version="1.0" encoding="utf-8"?>
<!-- Generator: Adobe Illustrator 16.0.2, SVG Export Plug-In . SVG Version: 6.00 Build 0)  -->
<!DOCTYPE svg PUBLIC "-//W3C//DTD SVG 1.1//EN" "http://www.w3.org/Graphics/SVG/1.1/DTD/svg11.dtd">
<svg version="1.1" id="Layer_1" xmlns="http://www.w3.org/2000/svg" xmlns:xlink="http://www.w3.org/1999/xlink" x="0px" y="0px"
	 width="335.333px" height="98.333px" viewBox="0 0 335.333 98.333" enable-background="new 0 0 335.333 98.333"
	 xml:space="preserve">
<path fill="#452F27" stroke="#000000" stroke-linecap="square" stroke-linejoin="round" stroke-miterlimit="10" d="M17.496,13.135
	c0,0,39.33-14.675,79.687,3.375c0,0,3.669,38.596-13.355,65.745c0,0-44.612,0.587-72.642-18.931
	C11.185,63.324,5.462,37.935,17.496,13.135z"/>
<path fill="#FFFFFF" d="M79.621,77.589c0,0-38.219,0.014-65.182-16.671c0,0-5.702-21.766,5.258-44.354
	c0,0,30.841-12.424,69.413,0.893C89.11,17.456,95.13,52.865,79.621,77.589z"/>
<defs>
	<filter id="Adobe_OpacityMaskFilter" filterUnits="userSpaceOnUse" x="17.736" y="15.727" width="67.746" height="57.433">
		
			<feColorMatrix  type="matrix" values="-1 0 0 0 1  0 -1 0 0 1  0 0 -1 0 1  0 0 0 1 0" color-interpolation-filters="sRGB" result="source"/>
		<feFlood  style="flood-color:white;flood-opacity:1" result="back"/>
		<feBlend  in="source" in2="back" mode="normal"/>
	</filter>
</defs>
<mask maskUnits="userSpaceOnUse" x="17.736" y="15.727" width="67.746" height="57.433" id="SVGID_1_">
	<g filter="url(#Adobe_OpacityMaskFilter)">
		<polygon fill="#B2D134" points="43.921,33.259 43.921,53.035 61.335,43.146 		"/>
	</g>
</mask>
<g mask="url(#SVGID_1_)">
	<path fill="#B2D134" d="M23.875,19.686c16.868-5.551,35.117-4.648,52.3-1.075c2.019,0.419,9.297,0.937,9.297,4.234
		c0,16.058,0.718,36.959-10.154,50.315c-8.89-0.153-17.889-0.684-26.644-2.259c-5.569-1.001-10.911-3.393-16.132-5.522
		c-4.567-1.862-9.531-3.639-13.629-6.433c-0.916-0.624-0.843-5.526-0.93-6.527c-0.49-5.603-0.247-11.287,0.713-16.829
		c0.471-2.713,1.111-5.399,1.954-8.022C21.079,26.229,22.574,20.114,23.875,19.686z"/>
</g>
<text transform="matrix(1 0 0 1 108.3345 77.5889)" fill="#452F27" font-family="'DroidSerif'" font-size="15.5572">video downloader / converter</text>
<text transform="matrix(1 0 0 1 108.3345 59.251)"><tspan x="0" y="0" fill="#B2D134" stroke="#452F27" stroke-miterlimit="10" font-family="'DroidSerif'" font-size="54">De</tspan><tspan x="68.159" y="0" fill="#452F27" stroke="#000000" stroke-linecap="square" stroke-linejoin="round" stroke-miterlimit="10" font-family="'DroidSerif'" font-size="54">Dex</tspan></text>
<polygon fill="#B2D134" stroke="#452F27" stroke-miterlimit="10" points="273.484,13.095 284.302,29.065 297.181,13.095 
	297.181,13.095 285.333,18.246 273.484,13.095 "/>
</svg>
